<mxfile host="app.diagrams.net" modified="2024-01-12T20:59:38.289Z" agent="Mozilla/5.0 (Macintosh; Intel Mac OS X 10_15_7) AppleWebKit/537.36 (KHTML, like Gecko) Chrome/120.0.0.0 Safari/537.36" etag="aVW_A1U4PFgknm1_tkEn" version="22.1.18" type="device">
  <diagram name="Page-1" id="x0KN4_Y1s9j6WSk5mXkh">
    <mxGraphModel dx="1397" dy="656" grid="1" gridSize="10" guides="1" tooltips="1" connect="1" arrows="1" fold="1" page="1" pageScale="1" pageWidth="1100" pageHeight="850" math="0" shadow="0">
      <root>
        <mxCell id="0" />
        <mxCell id="1" parent="0" />
        <mxCell id="6xY-UhaqFnQ6phF0XWFp-27" value="" style="edgeStyle=orthogonalEdgeStyle;rounded=0;orthogonalLoop=1;jettySize=auto;html=1;" edge="1" parent="1" source="6xY-UhaqFnQ6phF0XWFp-1" target="6xY-UhaqFnQ6phF0XWFp-24">
          <mxGeometry relative="1" as="geometry" />
        </mxCell>
        <mxCell id="6xY-UhaqFnQ6phF0XWFp-1" value="Start" style="ellipse;whiteSpace=wrap;html=1;aspect=fixed;fillColor=#d5e8d4;strokeColor=#82b366;" vertex="1" parent="1">
          <mxGeometry x="285" y="100" width="50" height="50" as="geometry" />
        </mxCell>
        <mxCell id="6xY-UhaqFnQ6phF0XWFp-2" value="End" style="ellipse;whiteSpace=wrap;html=1;aspect=fixed;fillColor=#f8cecc;strokeColor=#b85450;" vertex="1" parent="1">
          <mxGeometry x="775" y="400" width="50" height="50" as="geometry" />
        </mxCell>
        <mxCell id="6xY-UhaqFnQ6phF0XWFp-7" value="" style="edgeStyle=orthogonalEdgeStyle;rounded=0;orthogonalLoop=1;jettySize=auto;html=1;" edge="1" parent="1" source="6xY-UhaqFnQ6phF0XWFp-4" target="6xY-UhaqFnQ6phF0XWFp-6">
          <mxGeometry relative="1" as="geometry" />
        </mxCell>
        <mxCell id="6xY-UhaqFnQ6phF0XWFp-4" value="&lt;b&gt;development&lt;/b&gt; branch" style="rounded=0;whiteSpace=wrap;html=1;" vertex="1" parent="1">
          <mxGeometry x="250" y="310" width="120" height="60" as="geometry" />
        </mxCell>
        <mxCell id="6xY-UhaqFnQ6phF0XWFp-10" value="" style="edgeStyle=orthogonalEdgeStyle;rounded=0;orthogonalLoop=1;jettySize=auto;html=1;" edge="1" parent="1" source="6xY-UhaqFnQ6phF0XWFp-6" target="6xY-UhaqFnQ6phF0XWFp-9">
          <mxGeometry relative="1" as="geometry" />
        </mxCell>
        <mxCell id="6xY-UhaqFnQ6phF0XWFp-11" value="Push" style="edgeLabel;html=1;align=center;verticalAlign=middle;resizable=0;points=[];" vertex="1" connectable="0" parent="6xY-UhaqFnQ6phF0XWFp-10">
          <mxGeometry x="-0.2571" relative="1" as="geometry">
            <mxPoint as="offset" />
          </mxGeometry>
        </mxCell>
        <mxCell id="6xY-UhaqFnQ6phF0XWFp-34" style="edgeStyle=orthogonalEdgeStyle;rounded=0;orthogonalLoop=1;jettySize=auto;html=1;entryX=0;entryY=0.5;entryDx=0;entryDy=0;" edge="1" parent="1" source="6xY-UhaqFnQ6phF0XWFp-6" target="6xY-UhaqFnQ6phF0XWFp-24">
          <mxGeometry relative="1" as="geometry">
            <Array as="points">
              <mxPoint x="200" y="440" />
              <mxPoint x="200" y="230" />
            </Array>
          </mxGeometry>
        </mxCell>
        <mxCell id="6xY-UhaqFnQ6phF0XWFp-35" value="No" style="edgeLabel;html=1;align=center;verticalAlign=middle;resizable=0;points=[];" vertex="1" connectable="0" parent="6xY-UhaqFnQ6phF0XWFp-34">
          <mxGeometry x="-0.7394" y="1" relative="1" as="geometry">
            <mxPoint as="offset" />
          </mxGeometry>
        </mxCell>
        <mxCell id="6xY-UhaqFnQ6phF0XWFp-6" value="Promote&lt;br&gt;Ready?" style="rhombus;whiteSpace=wrap;html=1;" vertex="1" parent="1">
          <mxGeometry x="270" y="400" width="80" height="80" as="geometry" />
        </mxCell>
        <mxCell id="6xY-UhaqFnQ6phF0XWFp-15" value="" style="edgeStyle=orthogonalEdgeStyle;rounded=0;orthogonalLoop=1;jettySize=auto;html=1;" edge="1" parent="1" source="6xY-UhaqFnQ6phF0XWFp-9" target="6xY-UhaqFnQ6phF0XWFp-14">
          <mxGeometry relative="1" as="geometry" />
        </mxCell>
        <mxCell id="6xY-UhaqFnQ6phF0XWFp-9" value="&lt;b&gt;main&lt;/b&gt; branch" style="rounded=0;whiteSpace=wrap;html=1;" vertex="1" parent="1">
          <mxGeometry x="425" y="410" width="120" height="60" as="geometry" />
        </mxCell>
        <mxCell id="6xY-UhaqFnQ6phF0XWFp-20" value="" style="edgeStyle=orthogonalEdgeStyle;rounded=0;orthogonalLoop=1;jettySize=auto;html=1;" edge="1" parent="1" source="6xY-UhaqFnQ6phF0XWFp-12" target="6xY-UhaqFnQ6phF0XWFp-19">
          <mxGeometry relative="1" as="geometry" />
        </mxCell>
        <mxCell id="6xY-UhaqFnQ6phF0XWFp-21" value="approve &amp;amp;&lt;br&gt;merge&lt;br&gt;changes" style="edgeLabel;html=1;align=center;verticalAlign=middle;resizable=0;points=[];" vertex="1" connectable="0" parent="6xY-UhaqFnQ6phF0XWFp-20">
          <mxGeometry x="-0.44" y="-1" relative="1" as="geometry">
            <mxPoint x="10" y="-31" as="offset" />
          </mxGeometry>
        </mxCell>
        <mxCell id="6xY-UhaqFnQ6phF0XWFp-33" style="edgeStyle=orthogonalEdgeStyle;rounded=0;orthogonalLoop=1;jettySize=auto;html=1;entryX=0.5;entryY=0;entryDx=0;entryDy=0;" edge="1" parent="1" source="6xY-UhaqFnQ6phF0XWFp-12" target="6xY-UhaqFnQ6phF0XWFp-24">
          <mxGeometry relative="1" as="geometry">
            <Array as="points">
              <mxPoint x="630" y="180" />
              <mxPoint x="310" y="180" />
            </Array>
          </mxGeometry>
        </mxCell>
        <mxCell id="6xY-UhaqFnQ6phF0XWFp-36" value="No" style="edgeLabel;html=1;align=center;verticalAlign=middle;resizable=0;points=[];" vertex="1" connectable="0" parent="6xY-UhaqFnQ6phF0XWFp-33">
          <mxGeometry x="-0.1167" y="-1" relative="1" as="geometry">
            <mxPoint as="offset" />
          </mxGeometry>
        </mxCell>
        <mxCell id="6xY-UhaqFnQ6phF0XWFp-12" value="Approve?" style="rhombus;whiteSpace=wrap;html=1;" vertex="1" parent="1">
          <mxGeometry x="590" y="200" width="80" height="80" as="geometry" />
        </mxCell>
        <mxCell id="6xY-UhaqFnQ6phF0XWFp-17" value="" style="edgeStyle=orthogonalEdgeStyle;rounded=0;orthogonalLoop=1;jettySize=auto;html=1;" edge="1" parent="1" source="6xY-UhaqFnQ6phF0XWFp-14" target="6xY-UhaqFnQ6phF0XWFp-16">
          <mxGeometry relative="1" as="geometry" />
        </mxCell>
        <mxCell id="6xY-UhaqFnQ6phF0XWFp-14" value="Pull Request" style="rounded=0;whiteSpace=wrap;html=1;" vertex="1" parent="1">
          <mxGeometry x="425" y="310" width="120" height="60" as="geometry" />
        </mxCell>
        <mxCell id="6xY-UhaqFnQ6phF0XWFp-18" value="" style="edgeStyle=orthogonalEdgeStyle;rounded=0;orthogonalLoop=1;jettySize=auto;html=1;" edge="1" parent="1" source="6xY-UhaqFnQ6phF0XWFp-16" target="6xY-UhaqFnQ6phF0XWFp-12">
          <mxGeometry relative="1" as="geometry" />
        </mxCell>
        <mxCell id="6xY-UhaqFnQ6phF0XWFp-16" value="Peer Review" style="rounded=0;whiteSpace=wrap;html=1;" vertex="1" parent="1">
          <mxGeometry x="425" y="210" width="120" height="60" as="geometry" />
        </mxCell>
        <mxCell id="6xY-UhaqFnQ6phF0XWFp-30" value="" style="edgeStyle=orthogonalEdgeStyle;rounded=0;orthogonalLoop=1;jettySize=auto;html=1;" edge="1" parent="1" source="6xY-UhaqFnQ6phF0XWFp-19" target="6xY-UhaqFnQ6phF0XWFp-29">
          <mxGeometry relative="1" as="geometry" />
        </mxCell>
        <mxCell id="6xY-UhaqFnQ6phF0XWFp-19" value="&lt;b&gt;main&lt;/b&gt; branch" style="rounded=0;whiteSpace=wrap;html=1;" vertex="1" parent="1">
          <mxGeometry x="740" y="210" width="120" height="60" as="geometry" />
        </mxCell>
        <mxCell id="6xY-UhaqFnQ6phF0XWFp-25" value="" style="edgeStyle=orthogonalEdgeStyle;rounded=0;orthogonalLoop=1;jettySize=auto;html=1;" edge="1" parent="1" source="6xY-UhaqFnQ6phF0XWFp-24" target="6xY-UhaqFnQ6phF0XWFp-4">
          <mxGeometry relative="1" as="geometry" />
        </mxCell>
        <mxCell id="6xY-UhaqFnQ6phF0XWFp-26" value="push" style="edgeLabel;html=1;align=center;verticalAlign=middle;resizable=0;points=[];" vertex="1" connectable="0" parent="6xY-UhaqFnQ6phF0XWFp-25">
          <mxGeometry x="-0.16" relative="1" as="geometry">
            <mxPoint as="offset" />
          </mxGeometry>
        </mxCell>
        <mxCell id="6xY-UhaqFnQ6phF0XWFp-24" value="dev and commit&lt;br&gt;local cache" style="rounded=0;whiteSpace=wrap;html=1;" vertex="1" parent="1">
          <mxGeometry x="250" y="200" width="120" height="60" as="geometry" />
        </mxCell>
        <mxCell id="6xY-UhaqFnQ6phF0XWFp-31" value="" style="edgeStyle=orthogonalEdgeStyle;rounded=0;orthogonalLoop=1;jettySize=auto;html=1;" edge="1" parent="1" source="6xY-UhaqFnQ6phF0XWFp-29" target="6xY-UhaqFnQ6phF0XWFp-2">
          <mxGeometry relative="1" as="geometry" />
        </mxCell>
        <mxCell id="6xY-UhaqFnQ6phF0XWFp-29" value="action runners&lt;br&gt;execute" style="rounded=0;whiteSpace=wrap;html=1;" vertex="1" parent="1">
          <mxGeometry x="740" y="310" width="120" height="60" as="geometry" />
        </mxCell>
      </root>
    </mxGraphModel>
  </diagram>
</mxfile>
